<svg xmlns="http://www.w3.org/2000/svg" xmlns:xlink="http://www.w3.org/1999/xlink" width="500" zoomAndPan="magnify" viewBox="0 0 375 374.999991" height="500" preserveAspectRatio="xMidYMid meet" version="1.0"><defs><g/><clipPath id="81c95be907"><path d="M 167 95.636719 L 199 95.636719 L 199 130 L 167 130 Z M 167 95.636719 " clip-rule="nonzero"/></clipPath><clipPath id="1d965e966e"><path d="M 144.804688 116 L 224 116 L 224 215.636719 L 144.804688 215.636719 Z M 144.804688 116 " clip-rule="nonzero"/></clipPath><clipPath id="6ed7326ba8"><path d="M 151 116 L 230.304688 116 L 230.304688 215.636719 L 151 215.636719 Z M 151 116 " clip-rule="nonzero"/></clipPath><clipPath id="eb47c25096"><path d="M 175 95.636719 L 207 95.636719 L 207 130 L 175 130 Z M 175 95.636719 " clip-rule="nonzero"/></clipPath></defs><rect x="-37.5" width="450" fill="#ffffff" y="-37.499999" height="449.999989" fill-opacity="1"/><rect x="-37.5" width="450" fill="#ffffff" y="-37.499999" height="449.999989" fill-opacity="1"/><g clip-path="url(#81c95be907)"><path stroke-linecap="round" transform="matrix(0.0521186, 0, 0, -0.0521286, 76.749016, 267.34973)" fill="none" stroke-linejoin="round" d="M 2306.208558 2673.567073 L 2306.208558 2995.712201 C 2306.208558 3141.610448 2188.013526 3259.932652 2042.087256 3259.932652 C 1896.235936 3259.932652 1777.965955 3141.610448 1777.965955 2995.712201 L 1777.965955 2673.567073 " stroke="#100f0f" stroke-width="68.362999" stroke-opacity="1" stroke-miterlimit="10"/></g><g clip-path="url(#1d965e966e)"><path fill="#f79326" d="M 223.210938 211.304688 C 223.210938 213.683594 221.261719 215.628906 218.882812 215.628906 L 149.140625 215.628906 C 146.765625 215.628906 144.816406 213.683594 144.816406 211.304688 L 152.925781 121.101562 C 152.925781 118.726562 154.875 116.777344 157.25 116.777344 L 210.773438 116.777344 C 213.152344 116.777344 215.097656 118.726562 215.097656 121.101562 L 223.210938 211.304688 " fill-opacity="1" fill-rule="nonzero"/></g><g clip-path="url(#6ed7326ba8)"><path fill="#f9af23" d="M 230.289062 211.304688 C 230.289062 213.683594 228.339844 215.628906 225.964844 215.628906 L 156.21875 215.628906 C 153.84375 215.628906 151.894531 213.683594 151.894531 211.304688 L 160.007812 121.101562 C 160.007812 118.726562 161.953125 116.777344 164.335938 116.777344 L 217.855469 116.777344 C 220.230469 116.777344 222.179688 118.726562 222.179688 121.101562 L 230.289062 211.304688 " fill-opacity="1" fill-rule="nonzero"/></g><path fill="#f79326" d="M 181.210938 127.980469 C 181.210938 130.265625 179.359375 132.117188 177.078125 132.117188 C 174.792969 132.117188 172.9375 130.265625 172.9375 127.980469 C 172.9375 125.695312 174.792969 123.84375 177.078125 123.84375 C 179.359375 123.84375 181.210938 125.695312 181.210938 127.980469 " fill-opacity="1" fill-rule="nonzero"/><path fill="#f79326" d="M 209.246094 127.980469 C 209.246094 130.265625 207.390625 132.117188 205.113281 132.117188 C 202.824219 132.117188 200.972656 130.265625 200.972656 127.980469 C 200.972656 125.695312 202.824219 123.84375 205.113281 123.84375 C 207.390625 123.84375 209.246094 125.695312 209.246094 127.980469 " fill-opacity="1" fill-rule="nonzero"/><g clip-path="url(#eb47c25096)"><path stroke-linecap="round" transform="matrix(0.0521186, 0, 0, -0.0521286, 76.749016, 267.34973)" fill="none" stroke-linejoin="round" d="M 2457.980872 2673.567073 L 2457.980872 2995.712201 C 2457.980872 3141.610448 2339.78584 3259.932652 2193.93452 3259.932652 C 2048.00825 3259.932652 1929.813218 3141.610448 1929.813218 2995.712201 L 1929.813218 2673.567073 " stroke="#141515" stroke-width="68.362999" stroke-opacity="1" stroke-miterlimit="10"/></g><g fill="#000000" fill-opacity="1"><g transform="translate(122.089171, 254.577509)"><g><path d="M 22.5625 -5.890625 C 22.5625 -3.515625 22.648438 -1.550781 22.828125 0 C 21.078125 -0.0703125 18.117188 -0.109375 13.953125 -0.109375 C 8.316406 -0.109375 4.101562 -0.0703125 1.3125 0 L 1.3125 -0.78125 C 2.164062 -0.832031 2.789062 -0.929688 3.1875 -1.078125 C 3.59375 -1.234375 3.863281 -1.53125 4 -1.96875 C 4.144531 -2.414062 4.21875 -3.128906 4.21875 -4.109375 L 4.21875 -23.34375 C 4.21875 -24.320312 4.144531 -25.03125 4 -25.46875 C 3.863281 -25.90625 3.59375 -26.203125 3.1875 -26.359375 C 2.789062 -26.515625 2.164062 -26.617188 1.3125 -26.671875 L 1.3125 -27.453125 C 4.101562 -27.367188 8.316406 -27.328125 13.953125 -27.328125 C 17.753906 -27.328125 20.457031 -27.367188 22.0625 -27.453125 C 21.875 -25.304688 21.78125 -23.390625 21.78125 -21.703125 C 21.78125 -20.566406 21.820312 -19.691406 21.90625 -19.078125 L 21.015625 -19.078125 C 20.617188 -21.835938 19.914062 -23.769531 18.90625 -24.875 C 17.90625 -25.988281 16.488281 -26.546875 14.65625 -26.546875 L 13.0625 -26.546875 C 12.257812 -26.546875 11.675781 -26.484375 11.3125 -26.359375 C 10.957031 -26.234375 10.710938 -25.984375 10.578125 -25.609375 C 10.453125 -25.234375 10.390625 -24.628906 10.390625 -23.796875 L 10.390625 -14.1875 L 11.625 -14.1875 C 13 -14.1875 14.039062 -14.691406 14.75 -15.703125 C 15.457031 -16.710938 15.957031 -17.914062 16.25 -19.3125 L 17.140625 -19.3125 C 17.054688 -18.21875 17.015625 -17 17.015625 -15.65625 L 17.015625 -13.796875 C 17.015625 -12.484375 17.09375 -10.648438 17.25 -8.296875 L 16.359375 -8.296875 C 15.816406 -11.703125 14.238281 -13.40625 11.625 -13.40625 L 10.390625 -13.40625 L 10.390625 -3.640625 C 10.390625 -2.816406 10.453125 -2.21875 10.578125 -1.84375 C 10.710938 -1.46875 10.957031 -1.210938 11.3125 -1.078125 C 11.675781 -0.953125 12.257812 -0.890625 13.0625 -0.890625 L 14.96875 -0.890625 C 16.800781 -0.890625 18.28125 -1.515625 19.40625 -2.765625 C 20.53125 -4.023438 21.320312 -6.15625 21.78125 -9.15625 L 22.671875 -9.15625 C 22.597656 -8.300781 22.5625 -7.210938 22.5625 -5.890625 Z M 22.5625 -5.890625 "/></g></g></g><g fill="#000000" fill-opacity="1"><g transform="translate(146.077703, 254.577509)"><g><path d="M 16.328125 -8.875 L 2.328125 -8.875 L 2.328125 -12.09375 L 16.328125 -12.09375 Z M 16.328125 -8.875 "/></g></g></g><g fill="#000000" fill-opacity="1"><g transform="translate(164.136868, 254.577509)"><g><path d="M 8.609375 -20.578125 C 9.585938 -20.578125 10.488281 -20.453125 11.3125 -20.203125 C 12.144531 -19.960938 12.78125 -19.691406 13.21875 -19.390625 C 13.476562 -19.203125 13.710938 -19.109375 13.921875 -19.109375 C 14.148438 -19.109375 14.347656 -19.226562 14.515625 -19.46875 C 14.679688 -19.71875 14.789062 -20.078125 14.84375 -20.546875 L 15.65625 -20.546875 C 15.550781 -19.222656 15.5 -16.945312 15.5 -13.71875 L 14.6875 -13.71875 C 14.457031 -15.425781 13.945312 -16.851562 13.15625 -18 C 12.375 -19.15625 11.234375 -19.734375 9.734375 -19.734375 C 8.953125 -19.734375 8.3125 -19.507812 7.8125 -19.0625 C 7.3125 -18.625 7.0625 -18.019531 7.0625 -17.25 C 7.0625 -16.375 7.359375 -15.617188 7.953125 -14.984375 C 8.546875 -14.347656 9.472656 -13.578125 10.734375 -12.671875 L 11.859375 -11.859375 C 13.441406 -10.671875 14.601562 -9.609375 15.34375 -8.671875 C 16.09375 -7.742188 16.46875 -6.582031 16.46875 -5.1875 C 16.46875 -4.050781 16.140625 -3.046875 15.484375 -2.171875 C 14.828125 -1.296875 13.941406 -0.625 12.828125 -0.15625 C 11.722656 0.3125 10.5 0.546875 9.15625 0.546875 C 7.726562 0.546875 6.507812 0.273438 5.5 -0.265625 C 4.675781 -0.679688 4.082031 -0.953125 3.71875 -1.078125 C 3.457031 -1.160156 3.226562 -1.078125 3.03125 -0.828125 C 2.84375 -0.585938 2.695312 -0.222656 2.59375 0.265625 L 1.78125 0.265625 C 1.882812 -1.203125 1.9375 -3.785156 1.9375 -7.484375 L 2.75 -7.484375 C 3.269531 -2.722656 5.015625 -0.34375 7.984375 -0.34375 C 8.734375 -0.34375 9.375 -0.566406 9.90625 -1.015625 C 10.4375 -1.472656 10.703125 -2.164062 10.703125 -3.09375 C 10.703125 -3.820312 10.539062 -4.46875 10.21875 -5.03125 C 9.894531 -5.601562 9.484375 -6.109375 8.984375 -6.546875 C 8.492188 -6.984375 7.757812 -7.59375 6.78125 -8.375 C 5.625 -9.300781 4.738281 -10.046875 4.125 -10.609375 C 3.519531 -11.179688 3.003906 -11.851562 2.578125 -12.625 C 2.148438 -13.40625 1.9375 -14.273438 1.9375 -15.234375 C 1.9375 -16.890625 2.582031 -18.191406 3.875 -19.140625 C 5.164062 -20.097656 6.742188 -20.578125 8.609375 -20.578125 Z M 8.609375 -20.578125 "/></g></g></g><g fill="#000000" fill-opacity="1"><g transform="translate(181.459708, 254.577509)"><g><path d="M 8.796875 -20.046875 L 13.375 -20.046875 L 13.375 -19.265625 L 8.796875 -19.265625 L 8.796875 -3.609375 C 8.796875 -2.828125 8.929688 -2.273438 9.203125 -1.953125 C 9.472656 -1.628906 9.90625 -1.46875 10.5 -1.46875 C 11.613281 -1.46875 12.492188 -2.242188 13.140625 -3.796875 L 13.796875 -3.453125 C 12.816406 -0.785156 11.046875 0.546875 8.484375 0.546875 C 6.785156 0.546875 5.492188 0.101562 4.609375 -0.78125 C 4.066406 -1.320312 3.695312 -2 3.5 -2.8125 C 3.3125 -3.625 3.21875 -4.738281 3.21875 -6.15625 L 3.21875 -19.265625 L -0.03125 -19.265625 L -0.03125 -20.046875 L 3.21875 -20.046875 L 3.21875 -25.15625 C 5.363281 -25.15625 7.222656 -25.570312 8.796875 -26.40625 Z M 8.796875 -20.046875 "/></g></g></g><g fill="#000000" fill-opacity="1"><g transform="translate(194.519613, 254.577509)"><g><path d="M 10.9375 -20.578125 C 13.90625 -20.578125 16.226562 -19.726562 17.90625 -18.03125 C 19.582031 -16.34375 20.421875 -13.664062 20.421875 -10 C 20.421875 -6.332031 19.582031 -3.65625 17.90625 -1.96875 C 16.226562 -0.289062 13.90625 0.546875 10.9375 0.546875 C 7.988281 0.546875 5.664062 -0.289062 3.96875 -1.96875 C 2.28125 -3.65625 1.4375 -6.332031 1.4375 -10 C 1.4375 -13.664062 2.28125 -16.34375 3.96875 -18.03125 C 5.664062 -19.726562 7.988281 -20.578125 10.9375 -20.578125 Z M 10.9375 -19.8125 C 9.820312 -19.8125 8.929688 -19.003906 8.265625 -17.390625 C 7.609375 -15.773438 7.28125 -13.3125 7.28125 -10 C 7.28125 -6.695312 7.609375 -4.242188 8.265625 -2.640625 C 8.929688 -1.035156 9.820312 -0.234375 10.9375 -0.234375 C 12.070312 -0.234375 12.960938 -1.023438 13.609375 -2.609375 C 14.253906 -4.203125 14.578125 -6.664062 14.578125 -10 C 14.578125 -13.332031 14.242188 -15.800781 13.578125 -17.40625 C 12.921875 -19.007812 12.039062 -19.8125 10.9375 -19.8125 Z M 10.9375 -19.8125 "/></g></g></g><g fill="#000000" fill-opacity="1"><g transform="translate(215.834119, 254.577509)"><g><path d="M 14.265625 -20.578125 C 15.429688 -20.578125 16.3125 -20.226562 16.90625 -19.53125 C 17.5 -18.832031 17.796875 -17.992188 17.796875 -17.015625 C 17.796875 -16.054688 17.515625 -15.273438 16.953125 -14.671875 C 16.398438 -14.066406 15.671875 -13.765625 14.765625 -13.765625 C 13.890625 -13.765625 13.191406 -13.988281 12.671875 -14.4375 C 12.160156 -14.894531 11.90625 -15.5 11.90625 -16.25 C 11.90625 -17.488281 12.472656 -18.492188 13.609375 -19.265625 C 13.503906 -19.296875 13.347656 -19.3125 13.140625 -19.3125 C 12.878906 -19.3125 12.671875 -19.285156 12.515625 -19.234375 C 11.535156 -19.078125 10.703125 -18.476562 10.015625 -17.4375 C 9.335938 -16.40625 9 -15.347656 9 -14.265625 L 9 -4 C 9 -2.800781 9.285156 -1.96875 9.859375 -1.5 C 10.441406 -1.039062 11.367188 -0.8125 12.640625 -0.8125 L 12.640625 0 C 12.273438 0 11.976562 -0.0078125 11.75 -0.03125 C 9.113281 -0.113281 7.351562 -0.15625 6.46875 -0.15625 C 5.769531 -0.15625 4.179688 -0.113281 1.703125 -0.03125 C 1.492188 -0.0078125 1.238281 0 0.9375 0 L 0.9375 -0.8125 C 1.863281 -0.8125 2.503906 -1.007812 2.859375 -1.40625 C 3.222656 -1.8125 3.40625 -2.546875 3.40625 -3.609375 L 3.40625 -15.8125 C 3.40625 -17 3.222656 -17.863281 2.859375 -18.40625 C 2.503906 -18.957031 1.863281 -19.234375 0.9375 -19.234375 L 0.9375 -20.046875 C 1.757812 -19.960938 2.554688 -19.921875 3.328125 -19.921875 C 5.628906 -19.921875 7.519531 -20.101562 9 -20.46875 L 9 -16.859375 C 9.488281 -17.972656 10.195312 -18.867188 11.125 -19.546875 C 12.050781 -20.234375 13.097656 -20.578125 14.265625 -20.578125 Z M 14.265625 -20.578125 "/></g></g></g><g fill="#000000" fill-opacity="1"><g transform="translate(233.35073, 254.577509)"><g><path d="M 12.328125 -2.640625 C 14.441406 -2.640625 16.144531 -3.671875 17.4375 -5.734375 L 18.140625 -5.5 C 17.617188 -3.820312 16.691406 -2.394531 15.359375 -1.21875 C 14.035156 -0.0390625 12.378906 0.546875 10.390625 0.546875 C 7.648438 0.546875 5.472656 -0.320312 3.859375 -2.0625 C 2.242188 -3.8125 1.4375 -6.394531 1.4375 -9.8125 C 1.4375 -13.300781 2.300781 -15.96875 4.03125 -17.8125 C 5.757812 -19.65625 8.0625 -20.578125 10.9375 -20.578125 C 15.789062 -20.578125 18.21875 -17.710938 18.21875 -11.984375 L 7.328125 -11.984375 C 7.296875 -11.585938 7.28125 -10.976562 7.28125 -10.15625 C 7.28125 -8.445312 7.519531 -7.023438 8 -5.890625 C 8.476562 -4.753906 9.097656 -3.925781 9.859375 -3.40625 C 10.628906 -2.894531 11.453125 -2.640625 12.328125 -2.640625 Z M 10.703125 -19.765625 C 9.765625 -19.765625 8.992188 -19.191406 8.390625 -18.046875 C 7.785156 -16.898438 7.40625 -15.125 7.25 -12.71875 L 13.328125 -12.71875 C 13.378906 -14.757812 13.179688 -16.441406 12.734375 -17.765625 C 12.285156 -19.097656 11.609375 -19.765625 10.703125 -19.765625 Z M 10.703125 -19.765625 "/></g></g></g><g fill="#000000" fill-opacity="1"><g transform="translate(86.556084, 276.066779)"><g><path d="M 9.265625 0 L 7.703125 0 L 6.4375 -3.765625 L 2.8125 -3.765625 L 1.53125 0 L 0.265625 0 L 4.09375 -10.984375 L 5.453125 -10.984375 Z M 6.09375 -4.796875 L 4.640625 -9.140625 L 3.171875 -4.796875 Z M 6.09375 -4.796875 "/></g></g></g><g fill="#000000" fill-opacity="1"><g transform="translate(96.74383, 276.066779)"><g/></g></g><g fill="#000000" fill-opacity="1"><g transform="translate(100.888409, 276.066779)"><g><path d="M 7 0 L 5.765625 0 L 5.765625 -4.59375 C 5.765625 -4.832031 5.757812 -5.023438 5.75 -5.171875 C 5.738281 -5.316406 5.707031 -5.484375 5.65625 -5.671875 C 5.613281 -5.867188 5.550781 -6.023438 5.46875 -6.140625 C 5.382812 -6.253906 5.257812 -6.351562 5.09375 -6.4375 C 4.925781 -6.519531 4.726562 -6.5625 4.5 -6.5625 C 3.832031 -6.5625 3.144531 -6.226562 2.4375 -5.5625 L 2.4375 0 L 1.203125 0 L 1.203125 -5.3125 C 1.203125 -6.269531 1.035156 -6.976562 0.703125 -7.4375 L 2.078125 -7.609375 C 2.234375 -7.234375 2.332031 -6.878906 2.375 -6.546875 C 3.125 -7.296875 3.898438 -7.671875 4.703125 -7.671875 C 5.492188 -7.671875 6.070312 -7.429688 6.4375 -6.953125 C 6.8125 -6.484375 7 -5.832031 7 -5 Z M 7 0 "/></g></g></g><g fill="#000000" fill-opacity="1"><g transform="translate(109.810255, 276.066779)"><g><path d="M 6.125 -1.546875 L 6.671875 -0.640625 C 5.984375 -0.078125 5.140625 0.203125 4.140625 0.203125 C 3.054688 0.203125 2.203125 -0.160156 1.578125 -0.890625 C 0.960938 -1.617188 0.65625 -2.539062 0.65625 -3.65625 C 0.65625 -4.34375 0.769531 -4.984375 1 -5.578125 C 1.226562 -6.171875 1.59375 -6.664062 2.09375 -7.0625 C 2.601562 -7.46875 3.210938 -7.671875 3.921875 -7.671875 C 4.796875 -7.671875 5.5 -7.410156 6.03125 -6.890625 C 6.5625 -6.378906 6.828125 -5.691406 6.828125 -4.828125 C 6.828125 -4.179688 6.570312 -3.859375 6.0625 -3.859375 L 1.984375 -3.859375 L 1.984375 -3.703125 C 1.984375 -2.984375 2.175781 -2.328125 2.5625 -1.734375 C 2.957031 -1.148438 3.492188 -0.859375 4.171875 -0.859375 C 4.503906 -0.859375 4.851562 -0.921875 5.21875 -1.046875 C 5.582031 -1.171875 5.882812 -1.335938 6.125 -1.546875 Z M 2.078125 -4.796875 L 5.234375 -4.796875 C 5.335938 -4.796875 5.40625 -4.816406 5.4375 -4.859375 C 5.46875 -4.910156 5.484375 -4.992188 5.484375 -5.109375 C 5.484375 -5.566406 5.351562 -5.945312 5.09375 -6.25 C 4.832031 -6.5625 4.484375 -6.71875 4.046875 -6.71875 C 3.554688 -6.71875 3.128906 -6.519531 2.765625 -6.125 C 2.398438 -5.738281 2.171875 -5.296875 2.078125 -4.796875 Z M 2.078125 -4.796875 "/></g></g></g><g fill="#000000" fill-opacity="1"><g transform="translate(117.933384, 276.066779)"><g><path d="M 7.375 0.09375 L 6.46875 0.09375 L 4.953125 -5.09375 L 3.328125 0.09375 L 2.40625 0.09375 L 0.203125 -7.5 L 1.5 -7.5 L 3.015625 -2.375 L 4.609375 -7.5 L 5.5 -7.5 L 7.046875 -2.375 L 8.625 -7.5 L 9.734375 -7.5 Z M 7.375 0.09375 "/></g></g></g><g fill="#000000" fill-opacity="1"><g transform="translate(128.528026, 276.066779)"><g/></g></g><g fill="#000000" fill-opacity="1"><g transform="translate(132.672604, 276.066779)"><g><path d="M 7.25 -1.09375 L 7.515625 -0.3125 C 7.441406 -0.28125 7.328125 -0.234375 7.171875 -0.171875 C 7.015625 -0.109375 6.890625 -0.0546875 6.796875 -0.015625 C 6.703125 0.015625 6.582031 0.046875 6.4375 0.078125 C 6.300781 0.117188 6.175781 0.140625 6.0625 0.140625 C 5.769531 0.140625 5.53125 0.046875 5.34375 -0.140625 C 5.15625 -0.335938 5.035156 -0.585938 4.984375 -0.890625 C 4.316406 -0.179688 3.566406 0.171875 2.734375 0.171875 C 2.128906 0.171875 1.628906 -0.00390625 1.234375 -0.359375 C 0.847656 -0.722656 0.65625 -1.207031 0.65625 -1.8125 C 0.65625 -3.507812 2.085938 -4.367188 4.953125 -4.390625 L 4.953125 -5.1875 C 4.953125 -6.1875 4.535156 -6.6875 3.703125 -6.6875 C 3.316406 -6.6875 2.921875 -6.609375 2.515625 -6.453125 C 2.117188 -6.296875 1.796875 -6.082031 1.546875 -5.8125 L 0.9375 -6.6875 C 1.75 -7.34375 2.707031 -7.671875 3.8125 -7.671875 C 4.59375 -7.671875 5.1875 -7.457031 5.59375 -7.03125 C 6.007812 -6.601562 6.21875 -5.992188 6.21875 -5.203125 L 6.21875 -1.46875 C 6.21875 -1.257812 6.238281 -1.109375 6.28125 -1.015625 C 6.320312 -0.929688 6.410156 -0.890625 6.546875 -0.890625 C 6.660156 -0.890625 6.894531 -0.957031 7.25 -1.09375 Z M 4.953125 -2.921875 L 4.953125 -3.40625 C 4.585938 -3.40625 4.269531 -3.390625 4 -3.359375 C 3.738281 -3.335938 3.425781 -3.28125 3.0625 -3.1875 C 2.707031 -3.101562 2.429688 -2.945312 2.234375 -2.71875 C 2.035156 -2.488281 1.9375 -2.203125 1.9375 -1.859375 C 1.9375 -1.535156 2.046875 -1.289062 2.265625 -1.125 C 2.484375 -0.96875 2.773438 -0.890625 3.140625 -0.890625 C 3.648438 -0.890625 4.078125 -1.097656 4.421875 -1.515625 C 4.773438 -1.929688 4.953125 -2.398438 4.953125 -2.921875 Z M 4.953125 -2.921875 "/></g></g></g><g fill="#000000" fill-opacity="1"><g transform="translate(140.795731, 276.066779)"><g><path d="M 2.671875 3.25 L 1.21875 3.25 L 1.21875 -5.3125 C 1.21875 -6.226562 1.0625 -6.9375 0.75 -7.4375 L 2.078125 -7.59375 C 2.222656 -7.28125 2.320312 -6.941406 2.375 -6.578125 C 2.945312 -7.296875 3.675781 -7.65625 4.5625 -7.65625 C 5.5625 -7.65625 6.332031 -7.269531 6.875 -6.5 C 7.414062 -5.726562 7.6875 -4.820312 7.6875 -3.78125 C 7.6875 -2.675781 7.394531 -1.734375 6.8125 -0.953125 C 6.226562 -0.179688 5.398438 0.203125 4.328125 0.203125 C 3.554688 0.203125 2.929688 -0.0195312 2.453125 -0.46875 L 2.453125 2.375 Z M 2.453125 -5.5625 L 2.453125 -3.03125 C 2.453125 -2.382812 2.601562 -1.851562 2.90625 -1.4375 C 3.207031 -1.03125 3.671875 -0.828125 4.296875 -0.828125 C 4.679688 -0.828125 5.007812 -0.910156 5.28125 -1.078125 C 5.5625 -1.253906 5.773438 -1.484375 5.921875 -1.765625 C 6.078125 -2.054688 6.1875 -2.363281 6.25 -2.6875 C 6.320312 -3.007812 6.359375 -3.34375 6.359375 -3.6875 C 6.359375 -4.476562 6.179688 -5.15625 5.828125 -5.71875 C 5.484375 -6.28125 4.9375 -6.5625 4.1875 -6.5625 C 3.59375 -6.5625 3.015625 -6.226562 2.453125 -5.5625 Z M 2.453125 -5.5625 "/></g></g></g><g fill="#000000" fill-opacity="1"><g transform="translate(149.853214, 276.066779)"><g><path d="M 2.671875 3.25 L 1.21875 3.25 L 1.21875 -5.3125 C 1.21875 -6.226562 1.0625 -6.9375 0.75 -7.4375 L 2.078125 -7.59375 C 2.222656 -7.28125 2.320312 -6.941406 2.375 -6.578125 C 2.945312 -7.296875 3.675781 -7.65625 4.5625 -7.65625 C 5.5625 -7.65625 6.332031 -7.269531 6.875 -6.5 C 7.414062 -5.726562 7.6875 -4.820312 7.6875 -3.78125 C 7.6875 -2.675781 7.394531 -1.734375 6.8125 -0.953125 C 6.226562 -0.179688 5.398438 0.203125 4.328125 0.203125 C 3.554688 0.203125 2.929688 -0.0195312 2.453125 -0.46875 L 2.453125 2.375 Z M 2.453125 -5.5625 L 2.453125 -3.03125 C 2.453125 -2.382812 2.601562 -1.851562 2.90625 -1.4375 C 3.207031 -1.03125 3.671875 -0.828125 4.296875 -0.828125 C 4.679688 -0.828125 5.007812 -0.910156 5.28125 -1.078125 C 5.5625 -1.253906 5.773438 -1.484375 5.921875 -1.765625 C 6.078125 -2.054688 6.1875 -2.363281 6.25 -2.6875 C 6.320312 -3.007812 6.359375 -3.34375 6.359375 -3.6875 C 6.359375 -4.476562 6.179688 -5.15625 5.828125 -5.71875 C 5.484375 -6.28125 4.9375 -6.5625 4.1875 -6.5625 C 3.59375 -6.5625 3.015625 -6.226562 2.453125 -5.5625 Z M 2.453125 -5.5625 "/></g></g></g><g fill="#000000" fill-opacity="1"><g transform="translate(158.910697, 276.066779)"><g><path d="M 2.46875 0 L 1.21875 0 L 1.21875 -5.421875 C 1.21875 -6.304688 1.054688 -6.988281 0.734375 -7.46875 L 2.09375 -7.625 C 2.28125 -7.1875 2.394531 -6.722656 2.4375 -6.234375 C 2.707031 -6.648438 3.0625 -6.984375 3.5 -7.234375 C 3.945312 -7.492188 4.414062 -7.625 4.90625 -7.625 L 4.59375 -6.296875 C 3.78125 -6.296875 3.070312 -5.851562 2.46875 -4.96875 Z M 2.46875 0 "/></g></g></g><g fill="#000000" fill-opacity="1"><g transform="translate(164.848636, 276.066779)"><g><path d="M 4.046875 0.203125 C 2.984375 0.203125 2.148438 -0.179688 1.546875 -0.953125 C 0.953125 -1.722656 0.65625 -2.648438 0.65625 -3.734375 C 0.65625 -4.816406 0.957031 -5.742188 1.5625 -6.515625 C 2.164062 -7.285156 2.992188 -7.671875 4.046875 -7.671875 C 5.109375 -7.671875 5.9375 -7.289062 6.53125 -6.53125 C 7.132812 -5.769531 7.4375 -4.835938 7.4375 -3.734375 C 7.4375 -2.640625 7.132812 -1.707031 6.53125 -0.9375 C 5.9375 -0.175781 5.109375 0.203125 4.046875 0.203125 Z M 4.046875 -0.75 C 4.535156 -0.75 4.941406 -0.914062 5.265625 -1.25 C 5.597656 -1.582031 5.820312 -1.960938 5.9375 -2.390625 C 6.050781 -2.816406 6.109375 -3.265625 6.109375 -3.734375 C 6.109375 -4.210938 6.046875 -4.664062 5.921875 -5.09375 C 5.804688 -5.519531 5.582031 -5.894531 5.25 -6.21875 C 4.925781 -6.550781 4.523438 -6.71875 4.046875 -6.71875 C 3.554688 -6.71875 3.148438 -6.550781 2.828125 -6.21875 C 2.503906 -5.894531 2.28125 -5.519531 2.15625 -5.09375 C 2.039062 -4.664062 1.984375 -4.210938 1.984375 -3.734375 C 1.984375 -3.296875 2.046875 -2.859375 2.171875 -2.421875 C 2.304688 -1.992188 2.535156 -1.609375 2.859375 -1.265625 C 3.191406 -0.921875 3.585938 -0.75 4.046875 -0.75 Z M 4.046875 -0.75 "/></g></g></g><g fill="#000000" fill-opacity="1"><g transform="translate(173.604716, 276.066779)"><g><path d="M 7.25 -1.09375 L 7.515625 -0.3125 C 7.441406 -0.28125 7.328125 -0.234375 7.171875 -0.171875 C 7.015625 -0.109375 6.890625 -0.0546875 6.796875 -0.015625 C 6.703125 0.015625 6.582031 0.046875 6.4375 0.078125 C 6.300781 0.117188 6.175781 0.140625 6.0625 0.140625 C 5.769531 0.140625 5.53125 0.046875 5.34375 -0.140625 C 5.15625 -0.335938 5.035156 -0.585938 4.984375 -0.890625 C 4.316406 -0.179688 3.566406 0.171875 2.734375 0.171875 C 2.128906 0.171875 1.628906 -0.00390625 1.234375 -0.359375 C 0.847656 -0.722656 0.65625 -1.207031 0.65625 -1.8125 C 0.65625 -3.507812 2.085938 -4.367188 4.953125 -4.390625 L 4.953125 -5.1875 C 4.953125 -6.1875 4.535156 -6.6875 3.703125 -6.6875 C 3.316406 -6.6875 2.921875 -6.609375 2.515625 -6.453125 C 2.117188 -6.296875 1.796875 -6.082031 1.546875 -5.8125 L 0.9375 -6.6875 C 1.75 -7.34375 2.707031 -7.671875 3.8125 -7.671875 C 4.59375 -7.671875 5.1875 -7.457031 5.59375 -7.03125 C 6.007812 -6.601562 6.21875 -5.992188 6.21875 -5.203125 L 6.21875 -1.46875 C 6.21875 -1.257812 6.238281 -1.109375 6.28125 -1.015625 C 6.320312 -0.929688 6.410156 -0.890625 6.546875 -0.890625 C 6.660156 -0.890625 6.894531 -0.957031 7.25 -1.09375 Z M 4.953125 -2.921875 L 4.953125 -3.40625 C 4.585938 -3.40625 4.269531 -3.390625 4 -3.359375 C 3.738281 -3.335938 3.425781 -3.28125 3.0625 -3.1875 C 2.707031 -3.101562 2.429688 -2.945312 2.234375 -2.71875 C 2.035156 -2.488281 1.9375 -2.203125 1.9375 -1.859375 C 1.9375 -1.535156 2.046875 -1.289062 2.265625 -1.125 C 2.484375 -0.96875 2.773438 -0.890625 3.140625 -0.890625 C 3.648438 -0.890625 4.078125 -1.097656 4.421875 -1.515625 C 4.773438 -1.929688 4.953125 -2.398438 4.953125 -2.921875 Z M 4.953125 -2.921875 "/></g></g></g><g fill="#000000" fill-opacity="1"><g transform="translate(181.727846, 276.066779)"><g><path d="M 5.953125 -1.5 L 6.53125 -0.5625 C 6.050781 -0.28125 5.644531 -0.0820312 5.3125 0.03125 C 4.976562 0.144531 4.5625 0.203125 4.0625 0.203125 C 3.050781 0.203125 2.226562 -0.195312 1.59375 -1 C 0.96875 -1.800781 0.65625 -2.710938 0.65625 -3.734375 C 0.65625 -4.867188 0.972656 -5.804688 1.609375 -6.546875 C 2.253906 -7.296875 3.132812 -7.671875 4.25 -7.671875 C 5.019531 -7.671875 5.742188 -7.414062 6.421875 -6.90625 L 5.75 -6.03125 C 5.457031 -6.28125 5.191406 -6.453125 4.953125 -6.546875 C 4.710938 -6.640625 4.414062 -6.6875 4.0625 -6.6875 C 3.40625 -6.6875 2.894531 -6.390625 2.53125 -5.796875 C 2.175781 -5.210938 2 -4.570312 2 -3.875 C 2 -3.414062 2.066406 -2.96875 2.203125 -2.53125 C 2.335938 -2.09375 2.570312 -1.703125 2.90625 -1.359375 C 3.25 -1.015625 3.65625 -0.84375 4.125 -0.84375 C 4.488281 -0.84375 4.796875 -0.890625 5.046875 -0.984375 C 5.296875 -1.085938 5.597656 -1.257812 5.953125 -1.5 Z M 5.953125 -1.5 "/></g></g></g><g fill="#000000" fill-opacity="1"><g transform="translate(189.187883, 276.066779)"><g><path d="M 7.03125 0 L 5.796875 0 L 5.796875 -4.609375 C 5.796875 -4.898438 5.785156 -5.132812 5.765625 -5.3125 C 5.742188 -5.5 5.691406 -5.703125 5.609375 -5.921875 C 5.535156 -6.140625 5.40625 -6.300781 5.21875 -6.40625 C 5.039062 -6.519531 4.8125 -6.578125 4.53125 -6.578125 C 3.945312 -6.578125 3.257812 -6.242188 2.46875 -5.578125 L 2.46875 0 L 1.234375 0 L 1.234375 -10.59375 C 1.234375 -10.601562 1.21875 -10.675781 1.1875 -10.8125 C 1.15625 -10.945312 1.125 -11.085938 1.09375 -11.234375 C 1.0625 -11.378906 1.046875 -11.460938 1.046875 -11.484375 L 2.46875 -11.484375 L 2.46875 -6.609375 C 3.238281 -7.328125 4 -7.6875 4.75 -7.6875 C 6.269531 -7.6875 7.03125 -6.796875 7.03125 -5.015625 Z M 7.03125 0 "/></g></g></g><g fill="#000000" fill-opacity="1"><g transform="translate(198.109731, 276.066779)"><g/></g></g><g fill="#000000" fill-opacity="1"><g transform="translate(202.254311, 276.066779)"><g><path d="M 4.421875 -0.953125 L 4.625 -0.109375 C 4.03125 0.078125 3.535156 0.171875 3.140625 0.171875 C 2.523438 0.171875 2.082031 0.0078125 1.8125 -0.3125 C 1.550781 -0.644531 1.421875 -1.132812 1.421875 -1.78125 L 1.421875 -6.546875 L 0.296875 -6.546875 L 0.296875 -7.296875 C 1.171875 -7.316406 1.753906 -8.097656 2.046875 -9.640625 L 3 -9.640625 C 2.78125 -8.734375 2.671875 -8.019531 2.671875 -7.5 L 4.625 -7.5 L 4.359375 -6.546875 L 2.671875 -6.546875 L 2.671875 -1.75 C 2.671875 -1.425781 2.726562 -1.1875 2.84375 -1.03125 C 2.957031 -0.875 3.164062 -0.796875 3.46875 -0.796875 C 3.695312 -0.796875 4.015625 -0.847656 4.421875 -0.953125 Z M 4.421875 -0.953125 "/></g></g></g><g fill="#000000" fill-opacity="1"><g transform="translate(207.860703, 276.066779)"><g><path d="M 4.046875 0.203125 C 2.984375 0.203125 2.148438 -0.179688 1.546875 -0.953125 C 0.953125 -1.722656 0.65625 -2.648438 0.65625 -3.734375 C 0.65625 -4.816406 0.957031 -5.742188 1.5625 -6.515625 C 2.164062 -7.285156 2.992188 -7.671875 4.046875 -7.671875 C 5.109375 -7.671875 5.9375 -7.289062 6.53125 -6.53125 C 7.132812 -5.769531 7.4375 -4.835938 7.4375 -3.734375 C 7.4375 -2.640625 7.132812 -1.707031 6.53125 -0.9375 C 5.9375 -0.175781 5.109375 0.203125 4.046875 0.203125 Z M 4.046875 -0.75 C 4.535156 -0.75 4.941406 -0.914062 5.265625 -1.25 C 5.597656 -1.582031 5.820312 -1.960938 5.9375 -2.390625 C 6.050781 -2.816406 6.109375 -3.265625 6.109375 -3.734375 C 6.109375 -4.210938 6.046875 -4.664062 5.921875 -5.09375 C 5.804688 -5.519531 5.582031 -5.894531 5.25 -6.21875 C 4.925781 -6.550781 4.523438 -6.71875 4.046875 -6.71875 C 3.554688 -6.71875 3.148438 -6.550781 2.828125 -6.21875 C 2.503906 -5.894531 2.28125 -5.519531 2.15625 -5.09375 C 2.039062 -4.664062 1.984375 -4.210938 1.984375 -3.734375 C 1.984375 -3.296875 2.046875 -2.859375 2.171875 -2.421875 C 2.304688 -1.992188 2.535156 -1.609375 2.859375 -1.265625 C 3.191406 -0.921875 3.585938 -0.75 4.046875 -0.75 Z M 4.046875 -0.75 "/></g></g></g><g fill="#000000" fill-opacity="1"><g transform="translate(216.616783, 276.066779)"><g/></g></g><g fill="#000000" fill-opacity="1"><g transform="translate(220.761363, 276.066779)"><g><path d="M 0.765625 -0.4375 L 1.296875 -1.359375 C 1.878906 -0.953125 2.410156 -0.75 2.890625 -0.75 C 3.304688 -0.75 3.664062 -0.828125 3.96875 -0.984375 C 4.269531 -1.148438 4.421875 -1.425781 4.421875 -1.8125 C 4.421875 -2.113281 4.296875 -2.375 4.046875 -2.59375 C 3.804688 -2.820312 3.515625 -3.015625 3.171875 -3.171875 C 2.828125 -3.335938 2.484375 -3.507812 2.140625 -3.6875 C 1.796875 -3.863281 1.503906 -4.101562 1.265625 -4.40625 C 1.023438 -4.707031 0.90625 -5.066406 0.90625 -5.484375 C 0.90625 -6.191406 1.160156 -6.734375 1.671875 -7.109375 C 2.179688 -7.484375 2.804688 -7.671875 3.546875 -7.671875 C 4.304688 -7.671875 4.972656 -7.492188 5.546875 -7.140625 L 5.109375 -6.1875 C 4.640625 -6.539062 4.160156 -6.71875 3.671875 -6.71875 C 3.285156 -6.71875 2.941406 -6.640625 2.640625 -6.484375 C 2.335938 -6.328125 2.1875 -6.066406 2.1875 -5.703125 C 2.1875 -5.398438 2.304688 -5.132812 2.546875 -4.90625 C 2.785156 -4.675781 3.078125 -4.484375 3.421875 -4.328125 C 3.773438 -4.171875 4.125 -4.003906 4.46875 -3.828125 C 4.8125 -3.660156 5.101562 -3.421875 5.34375 -3.109375 C 5.59375 -2.796875 5.71875 -2.421875 5.71875 -1.984375 C 5.71875 -1.242188 5.460938 -0.691406 4.953125 -0.328125 C 4.441406 0.0234375 3.796875 0.203125 3.015625 0.203125 C 2.335938 0.203125 1.585938 -0.0078125 0.765625 -0.4375 Z M 0.765625 -0.4375 "/></g></g></g><g fill="#000000" fill-opacity="1"><g transform="translate(227.919997, 276.066779)"><g><path d="M 7.03125 0 L 5.796875 0 L 5.796875 -4.609375 C 5.796875 -4.898438 5.785156 -5.132812 5.765625 -5.3125 C 5.742188 -5.5 5.691406 -5.703125 5.609375 -5.921875 C 5.535156 -6.140625 5.40625 -6.300781 5.21875 -6.40625 C 5.039062 -6.519531 4.8125 -6.578125 4.53125 -6.578125 C 3.945312 -6.578125 3.257812 -6.242188 2.46875 -5.578125 L 2.46875 0 L 1.234375 0 L 1.234375 -10.59375 C 1.234375 -10.601562 1.21875 -10.675781 1.1875 -10.8125 C 1.15625 -10.945312 1.125 -11.085938 1.09375 -11.234375 C 1.0625 -11.378906 1.046875 -11.460938 1.046875 -11.484375 L 2.46875 -11.484375 L 2.46875 -6.609375 C 3.238281 -7.328125 4 -7.6875 4.75 -7.6875 C 6.269531 -7.6875 7.03125 -6.796875 7.03125 -5.015625 Z M 7.03125 0 "/></g></g></g><g fill="#000000" fill-opacity="1"><g transform="translate(236.841845, 276.066779)"><g><path d="M 4.046875 0.203125 C 2.984375 0.203125 2.148438 -0.179688 1.546875 -0.953125 C 0.953125 -1.722656 0.65625 -2.648438 0.65625 -3.734375 C 0.65625 -4.816406 0.957031 -5.742188 1.5625 -6.515625 C 2.164062 -7.285156 2.992188 -7.671875 4.046875 -7.671875 C 5.109375 -7.671875 5.9375 -7.289062 6.53125 -6.53125 C 7.132812 -5.769531 7.4375 -4.835938 7.4375 -3.734375 C 7.4375 -2.640625 7.132812 -1.707031 6.53125 -0.9375 C 5.9375 -0.175781 5.109375 0.203125 4.046875 0.203125 Z M 4.046875 -0.75 C 4.535156 -0.75 4.941406 -0.914062 5.265625 -1.25 C 5.597656 -1.582031 5.820312 -1.960938 5.9375 -2.390625 C 6.050781 -2.816406 6.109375 -3.265625 6.109375 -3.734375 C 6.109375 -4.210938 6.046875 -4.664062 5.921875 -5.09375 C 5.804688 -5.519531 5.582031 -5.894531 5.25 -6.21875 C 4.925781 -6.550781 4.523438 -6.71875 4.046875 -6.71875 C 3.554688 -6.71875 3.148438 -6.550781 2.828125 -6.21875 C 2.503906 -5.894531 2.28125 -5.519531 2.15625 -5.09375 C 2.039062 -4.664062 1.984375 -4.210938 1.984375 -3.734375 C 1.984375 -3.296875 2.046875 -2.859375 2.171875 -2.421875 C 2.304688 -1.992188 2.535156 -1.609375 2.859375 -1.265625 C 3.191406 -0.921875 3.585938 -0.75 4.046875 -0.75 Z M 4.046875 -0.75 "/></g></g></g><g fill="#000000" fill-opacity="1"><g transform="translate(245.597925, 276.066779)"><g><path d="M 2.671875 3.25 L 1.21875 3.25 L 1.21875 -5.3125 C 1.21875 -6.226562 1.0625 -6.9375 0.75 -7.4375 L 2.078125 -7.59375 C 2.222656 -7.28125 2.320312 -6.941406 2.375 -6.578125 C 2.945312 -7.296875 3.675781 -7.65625 4.5625 -7.65625 C 5.5625 -7.65625 6.332031 -7.269531 6.875 -6.5 C 7.414062 -5.726562 7.6875 -4.820312 7.6875 -3.78125 C 7.6875 -2.675781 7.394531 -1.734375 6.8125 -0.953125 C 6.226562 -0.179688 5.398438 0.203125 4.328125 0.203125 C 3.554688 0.203125 2.929688 -0.0195312 2.453125 -0.46875 L 2.453125 2.375 Z M 2.453125 -5.5625 L 2.453125 -3.03125 C 2.453125 -2.382812 2.601562 -1.851562 2.90625 -1.4375 C 3.207031 -1.03125 3.671875 -0.828125 4.296875 -0.828125 C 4.679688 -0.828125 5.007812 -0.910156 5.28125 -1.078125 C 5.5625 -1.253906 5.773438 -1.484375 5.921875 -1.765625 C 6.078125 -2.054688 6.1875 -2.363281 6.25 -2.6875 C 6.320312 -3.007812 6.359375 -3.34375 6.359375 -3.6875 C 6.359375 -4.476562 6.179688 -5.15625 5.828125 -5.71875 C 5.484375 -6.28125 4.9375 -6.5625 4.1875 -6.5625 C 3.59375 -6.5625 3.015625 -6.226562 2.453125 -5.5625 Z M 2.453125 -5.5625 "/></g></g></g><g fill="#000000" fill-opacity="1"><g transform="translate(254.655408, 276.066779)"><g><path d="M 2.671875 3.25 L 1.21875 3.25 L 1.21875 -5.3125 C 1.21875 -6.226562 1.0625 -6.9375 0.75 -7.4375 L 2.078125 -7.59375 C 2.222656 -7.28125 2.320312 -6.941406 2.375 -6.578125 C 2.945312 -7.296875 3.675781 -7.65625 4.5625 -7.65625 C 5.5625 -7.65625 6.332031 -7.269531 6.875 -6.5 C 7.414062 -5.726562 7.6875 -4.820312 7.6875 -3.78125 C 7.6875 -2.675781 7.394531 -1.734375 6.8125 -0.953125 C 6.226562 -0.179688 5.398438 0.203125 4.328125 0.203125 C 3.554688 0.203125 2.929688 -0.0195312 2.453125 -0.46875 L 2.453125 2.375 Z M 2.453125 -5.5625 L 2.453125 -3.03125 C 2.453125 -2.382812 2.601562 -1.851562 2.90625 -1.4375 C 3.207031 -1.03125 3.671875 -0.828125 4.296875 -0.828125 C 4.679688 -0.828125 5.007812 -0.910156 5.28125 -1.078125 C 5.5625 -1.253906 5.773438 -1.484375 5.921875 -1.765625 C 6.078125 -2.054688 6.1875 -2.363281 6.25 -2.6875 C 6.320312 -3.007812 6.359375 -3.34375 6.359375 -3.6875 C 6.359375 -4.476562 6.179688 -5.15625 5.828125 -5.71875 C 5.484375 -6.28125 4.9375 -6.5625 4.1875 -6.5625 C 3.59375 -6.5625 3.015625 -6.226562 2.453125 -5.5625 Z M 2.453125 -5.5625 "/></g></g></g><g fill="#000000" fill-opacity="1"><g transform="translate(263.712891, 276.066779)"><g><path d="M 2.796875 -10.015625 C 2.796875 -9.753906 2.707031 -9.535156 2.53125 -9.359375 C 2.351562 -9.179688 2.132812 -9.09375 1.875 -9.09375 C 1.625 -9.09375 1.410156 -9.179688 1.234375 -9.359375 C 1.054688 -9.546875 0.96875 -9.765625 0.96875 -10.015625 C 0.96875 -10.265625 1.054688 -10.476562 1.234375 -10.65625 C 1.410156 -10.84375 1.625 -10.9375 1.875 -10.9375 C 2.125 -10.9375 2.335938 -10.84375 2.515625 -10.65625 C 2.703125 -10.476562 2.796875 -10.265625 2.796875 -10.015625 Z M 2.515625 0 L 1.265625 0 L 1.265625 -6.609375 C 1.265625 -6.617188 1.25 -6.691406 1.21875 -6.828125 C 1.1875 -6.960938 1.15625 -7.101562 1.125 -7.25 C 1.09375 -7.394531 1.078125 -7.476562 1.078125 -7.5 L 2.515625 -7.5 Z M 2.515625 0 "/></g></g></g><g fill="#000000" fill-opacity="1"><g transform="translate(268.173946, 276.066779)"><g><path d="M 7 0 L 5.765625 0 L 5.765625 -4.59375 C 5.765625 -4.832031 5.757812 -5.023438 5.75 -5.171875 C 5.738281 -5.316406 5.707031 -5.484375 5.65625 -5.671875 C 5.613281 -5.867188 5.550781 -6.023438 5.46875 -6.140625 C 5.382812 -6.253906 5.257812 -6.351562 5.09375 -6.4375 C 4.925781 -6.519531 4.726562 -6.5625 4.5 -6.5625 C 3.832031 -6.5625 3.144531 -6.226562 2.4375 -5.5625 L 2.4375 0 L 1.203125 0 L 1.203125 -5.3125 C 1.203125 -6.269531 1.035156 -6.976562 0.703125 -7.4375 L 2.078125 -7.609375 C 2.234375 -7.234375 2.332031 -6.878906 2.375 -6.546875 C 3.125 -7.296875 3.898438 -7.671875 4.703125 -7.671875 C 5.492188 -7.671875 6.070312 -7.429688 6.4375 -6.953125 C 6.8125 -6.484375 7 -5.832031 7 -5 Z M 7 0 "/></g></g></g><g fill="#000000" fill-opacity="1"><g transform="translate(277.095794, 276.066779)"><g><path d="M 7.109375 -6.609375 L 5.484375 -6.609375 C 5.816406 -6.171875 5.984375 -5.660156 5.984375 -5.078125 C 5.984375 -4.359375 5.722656 -3.742188 5.203125 -3.234375 C 4.679688 -2.722656 4.054688 -2.46875 3.328125 -2.46875 C 3.265625 -2.46875 3.164062 -2.476562 3.03125 -2.5 C 2.90625 -2.519531 2.816406 -2.53125 2.765625 -2.53125 C 2.617188 -2.53125 2.476562 -2.429688 2.34375 -2.234375 C 2.21875 -2.035156 2.15625 -1.859375 2.15625 -1.703125 C 2.15625 -1.535156 2.207031 -1.40625 2.3125 -1.3125 C 2.414062 -1.21875 2.519531 -1.164062 2.625 -1.15625 C 2.738281 -1.144531 2.890625 -1.140625 3.078125 -1.140625 C 3.234375 -1.140625 3.476562 -1.144531 3.8125 -1.15625 C 4.144531 -1.175781 4.382812 -1.1875 4.53125 -1.1875 C 6.101562 -1.1875 6.890625 -0.660156 6.890625 0.390625 C 6.890625 1.421875 6.507812 2.191406 5.75 2.703125 C 4.988281 3.210938 4.078125 3.46875 3.015625 3.46875 C 2.328125 3.46875 1.703125 3.3125 1.140625 3 C 0.585938 2.6875 0.3125 2.207031 0.3125 1.5625 C 0.3125 0.914062 0.703125 0.320312 1.484375 -0.21875 C 1.015625 -0.445312 0.78125 -0.8125 0.78125 -1.3125 C 0.78125 -1.34375 0.84375 -1.445312 0.96875 -1.625 C 1.375 -2.1875 1.660156 -2.617188 1.828125 -2.921875 C 1.460938 -3.160156 1.175781 -3.472656 0.96875 -3.859375 C 0.757812 -4.242188 0.65625 -4.644531 0.65625 -5.0625 C 0.65625 -5.789062 0.914062 -6.40625 1.4375 -6.90625 C 1.96875 -7.414062 2.59375 -7.671875 3.3125 -7.671875 C 3.507812 -7.671875 3.789062 -7.632812 4.15625 -7.5625 C 4.519531 -7.5 4.789062 -7.46875 4.96875 -7.46875 C 5.476562 -7.46875 6.28125 -7.539062 7.375 -7.6875 Z M 3.3125 -3.375 C 3.6875 -3.375 4.003906 -3.535156 4.265625 -3.859375 C 4.535156 -4.191406 4.671875 -4.59375 4.671875 -5.0625 C 4.671875 -5.539062 4.535156 -5.941406 4.265625 -6.265625 C 4.003906 -6.597656 3.691406 -6.765625 3.328125 -6.765625 C 2.960938 -6.765625 2.644531 -6.601562 2.375 -6.28125 C 2.101562 -5.957031 1.96875 -5.554688 1.96875 -5.078125 C 1.96875 -4.609375 2.101562 -4.207031 2.375 -3.875 C 2.644531 -3.539062 2.957031 -3.375 3.3125 -3.375 Z M 2.375 0.046875 C 2.164062 0.191406 1.984375 0.382812 1.828125 0.625 C 1.679688 0.863281 1.609375 1.09375 1.609375 1.3125 C 1.609375 1.65625 1.785156 1.925781 2.140625 2.125 C 2.492188 2.332031 2.859375 2.4375 3.234375 2.4375 C 3.878906 2.4375 4.457031 2.304688 4.96875 2.046875 C 5.476562 1.785156 5.734375 1.378906 5.734375 0.828125 C 5.734375 0.648438 5.6875 0.5 5.59375 0.375 C 5.5 0.257812 5.367188 0.175781 5.203125 0.125 C 5.035156 0.0703125 4.878906 0.0351562 4.734375 0.015625 C 4.585938 0.00390625 4.40625 0 4.1875 0 C 3.582031 0 2.976562 0.015625 2.375 0.046875 Z M 2.375 0.046875 "/></g></g></g><g fill="#000000" fill-opacity="1"><g transform="translate(284.977786, 276.066779)"><g><path d="M 0.640625 -0.84375 C 0.640625 -1.125 0.734375 -1.359375 0.921875 -1.546875 C 1.109375 -1.742188 1.34375 -1.84375 1.625 -1.84375 C 1.894531 -1.84375 2.128906 -1.742188 2.328125 -1.546875 C 2.523438 -1.347656 2.625 -1.113281 2.625 -0.84375 C 2.625 -0.570312 2.523438 -0.335938 2.328125 -0.140625 C 2.128906 0.0546875 1.894531 0.15625 1.625 0.15625 C 1.351562 0.15625 1.117188 0.0546875 0.921875 -0.140625 C 0.734375 -0.335938 0.640625 -0.570312 0.640625 -0.84375 Z M 0.640625 -0.84375 "/></g></g></g></svg>